<mxfile host="65bd71144e">
    <diagram id="xUhgE4Rxfc2PH_i5NJvs" name="第 1 页">
        <mxGraphModel dx="1527" dy="878" grid="1" gridSize="10" guides="1" tooltips="1" connect="1" arrows="1" fold="1" page="1" pageScale="1" pageWidth="827" pageHeight="1169" math="0" shadow="0">
            <root>
                <mxCell id="0"/>
                <mxCell id="1" parent="0"/>
                <mxCell id="7" value="" style="edgeStyle=none;html=1;exitX=1;exitY=0.5;exitDx=0;exitDy=0;" parent="1" source="198" target="4" edge="1">
                    <mxGeometry relative="1" as="geometry">
                        <mxPoint x="140" y="155" as="sourcePoint"/>
                    </mxGeometry>
                </mxCell>
                <mxCell id="10" style="edgeStyle=none;html=1;exitX=1;exitY=0.5;exitDx=0;exitDy=0;entryX=0;entryY=0.5;entryDx=0;entryDy=0;" parent="1" source="4" edge="1">
                    <mxGeometry relative="1" as="geometry">
                        <mxPoint x="320" y="155" as="targetPoint"/>
                    </mxGeometry>
                </mxCell>
                <mxCell id="25" value="" style="edgeStyle=none;html=1;" parent="1" source="4" target="24" edge="1">
                    <mxGeometry relative="1" as="geometry"/>
                </mxCell>
                <mxCell id="27" value="" style="edgeStyle=none;html=1;" parent="1" source="4" target="26" edge="1">
                    <mxGeometry relative="1" as="geometry"/>
                </mxCell>
                <mxCell id="4" value="取远程版本号(remoteVersion)&lt;br&gt;iOS提审版本号(auditVersion)&lt;br&gt;本地版本号(localVersion)" style="rounded=0;whiteSpace=wrap;html=1;" parent="1" vertex="1">
                    <mxGeometry x="220" y="125" width="210" height="60" as="geometry"/>
                </mxCell>
                <mxCell id="23" value="开启" style="text;html=1;align=center;verticalAlign=middle;resizable=0;points=[];autosize=1;strokeColor=none;fillColor=none;" parent="1" vertex="1">
                    <mxGeometry x="160" y="135" width="40" height="20" as="geometry"/>
                </mxCell>
                <mxCell id="33" value="" style="edgeStyle=none;html=1;" parent="1" source="24" target="31" edge="1">
                    <mxGeometry relative="1" as="geometry"/>
                </mxCell>
                <mxCell id="24" value="iOS设备&lt;br&gt;" style="rounded=0;whiteSpace=wrap;html=1;" parent="1" vertex="1">
                    <mxGeometry x="265" y="210" width="120" height="60" as="geometry"/>
                </mxCell>
                <mxCell id="166" value="" style="html=1;entryX=0.5;entryY=0;entryDx=0;entryDy=0;exitX=1;exitY=0.5;exitDx=0;exitDy=0;edgeStyle=orthogonalEdgeStyle;" parent="1" source="26" target="42" edge="1">
                    <mxGeometry relative="1" as="geometry">
                        <mxPoint x="465" y="45" as="targetPoint"/>
                    </mxGeometry>
                </mxCell>
                <mxCell id="168" value="检查热更新" style="edgeLabel;html=1;align=center;verticalAlign=middle;resizable=0;points=[];" parent="166" vertex="1" connectable="0">
                    <mxGeometry x="-0.2765" y="1" relative="1" as="geometry">
                        <mxPoint x="16" y="1" as="offset"/>
                    </mxGeometry>
                </mxCell>
                <mxCell id="26" value="android设备" style="rounded=0;whiteSpace=wrap;html=1;" parent="1" vertex="1">
                    <mxGeometry x="265" y="15" width="120" height="60" as="geometry"/>
                </mxCell>
                <mxCell id="160" value="" style="edgeStyle=none;html=1;entryX=0.5;entryY=0;entryDx=0;entryDy=0;exitX=0.5;exitY=1;exitDx=0;exitDy=0;" parent="1" source="31" target="196" edge="1">
                    <mxGeometry relative="1" as="geometry">
                        <mxPoint x="325" y="475" as="targetPoint"/>
                    </mxGeometry>
                </mxCell>
                <mxCell id="164" style="edgeStyle=orthogonalEdgeStyle;html=1;exitX=1;exitY=0.5;exitDx=0;exitDy=0;entryX=0;entryY=0.5;entryDx=0;entryDy=0;" parent="1" source="31" target="42" edge="1">
                    <mxGeometry relative="1" as="geometry">
                        <mxPoint x="530" y="155" as="targetPoint"/>
                    </mxGeometry>
                </mxCell>
                <mxCell id="167" value="非提审状态&lt;br&gt;检查热更新" style="edgeLabel;html=1;align=center;verticalAlign=middle;resizable=0;points=[];" parent="164" vertex="1" connectable="0">
                    <mxGeometry x="-0.5552" y="2" relative="1" as="geometry">
                        <mxPoint x="6" y="-61" as="offset"/>
                    </mxGeometry>
                </mxCell>
                <mxCell id="31" value="本地版本号==提审版本号" style="rhombus;whiteSpace=wrap;html=1;rounded=0;" parent="1" vertex="1">
                    <mxGeometry x="227.5" y="295" width="195" height="70" as="geometry"/>
                </mxCell>
                <mxCell id="53" value="" style="edgeStyle=none;html=1;" parent="1" source="42" target="52" edge="1">
                    <mxGeometry relative="1" as="geometry"/>
                </mxCell>
                <mxCell id="201" value="" style="html=1;entryX=1;entryY=0.5;entryDx=0;entryDy=0;" edge="1" parent="1" source="42" target="196">
                    <mxGeometry relative="1" as="geometry">
                        <mxPoint x="627.5" y="285.0000000000001" as="targetPoint"/>
                        <Array as="points">
                            <mxPoint x="628" y="495"/>
                        </Array>
                    </mxGeometry>
                </mxCell>
                <mxCell id="42" value="本地版本号&amp;lt;远程版本号" style="rhombus;whiteSpace=wrap;html=1;rounded=0;" parent="1" vertex="1">
                    <mxGeometry x="530" y="105" width="195" height="100" as="geometry"/>
                </mxCell>
                <mxCell id="61" value="" style="edgeStyle=none;html=1;entryX=0;entryY=0.5;entryDx=0;entryDy=0;" parent="1" source="52" target="60" edge="1">
                    <mxGeometry relative="1" as="geometry"/>
                </mxCell>
                <mxCell id="117" value="" style="html=1;exitX=0.5;exitY=1;exitDx=0;exitDy=0;entryX=0.5;entryY=0;entryDx=0;entryDy=0;entryPerimeter=0;" parent="1" source="52" target="199" edge="1">
                    <mxGeometry relative="1" as="geometry">
                        <mxPoint x="985.7449999999999" y="275" as="targetPoint"/>
                    </mxGeometry>
                </mxCell>
                <mxCell id="52" value="&lt;div&gt;&lt;span&gt;请求资源的MD5文件: version_server.json&lt;/span&gt;&lt;/div&gt;&lt;div&gt;&lt;span&gt;&lt;br&gt;&lt;/span&gt;&lt;/div&gt;如果存在&lt;span&gt;hotfolder/version_local.json就与&lt;/span&gt;version_server.json对比，否则用res/version_local.json与version_server.json比较&lt;br&gt;&lt;br&gt;(其中 res/version.json 是包体自带的)" style="whiteSpace=wrap;html=1;rounded=0;align=left;" parent="1" vertex="1">
                    <mxGeometry x="827" y="100" width="317.5" height="110" as="geometry"/>
                </mxCell>
                <mxCell id="54" value="有热更&lt;br&gt;需要下载" style="text;html=1;align=center;verticalAlign=middle;resizable=0;points=[];autosize=1;strokeColor=none;fillColor=none;" parent="1" vertex="1">
                    <mxGeometry x="750" y="140" width="60" height="30" as="geometry"/>
                </mxCell>
                <mxCell id="55" value="hotfolder&amp;nbsp; &amp;nbsp;指热更文件夹" style="rounded=0;whiteSpace=wrap;html=1;align=left;" parent="1" vertex="1">
                    <mxGeometry y="1109" width="280" height="60" as="geometry"/>
                </mxCell>
                <mxCell id="69" value="" style="edgeStyle=none;html=1;entryX=0;entryY=0.5;entryDx=0;entryDy=0;exitX=1;exitY=0.5;exitDx=0;exitDy=0;startArrow=none;" parent="1" source="64" target="68" edge="1">
                    <mxGeometry relative="1" as="geometry"/>
                </mxCell>
                <mxCell id="91" value="" style="edgeStyle=orthogonalEdgeStyle;html=1;exitX=0.5;exitY=1;exitDx=0;exitDy=0;entryX=0.5;entryY=0;entryDx=0;entryDy=0;" parent="1" source="60" target="65" edge="1">
                    <mxGeometry relative="1" as="geometry">
                        <mxPoint x="1536" y="375" as="targetPoint"/>
                        <Array as="points">
                            <mxPoint x="1402" y="265"/>
                            <mxPoint x="1716" y="265"/>
                        </Array>
                    </mxGeometry>
                </mxCell>
                <mxCell id="60" value="&lt;div&gt;&lt;span&gt;1. server和local均存某文件在MD5信息？&lt;/span&gt;&lt;/div&gt;" style="rhombus;whiteSpace=wrap;html=1;align=center;rounded=0;" parent="1" vertex="1">
                    <mxGeometry x="1267" y="100" width="269" height="110" as="geometry"/>
                </mxCell>
                <mxCell id="124" style="edgeStyle=none;html=1;exitX=0.5;exitY=1;exitDx=0;exitDy=0;entryX=0.5;entryY=0;entryDx=0;entryDy=0;" parent="1" source="65" target="113" edge="1">
                    <mxGeometry relative="1" as="geometry"/>
                </mxCell>
                <mxCell id="125" style="edgeStyle=none;html=1;exitX=0.5;exitY=1;exitDx=0;exitDy=0;entryX=0.5;entryY=0;entryDx=0;entryDy=0;" parent="1" source="65" target="123" edge="1">
                    <mxGeometry relative="1" as="geometry"/>
                </mxCell>
                <mxCell id="65" value="加入下载列表{fileName, size, md5}&lt;br&gt;&lt;br&gt;统计所有要下载的文件大小" style="rounded=0;whiteSpace=wrap;html=1;" parent="1" vertex="1">
                    <mxGeometry x="1596" y="365" width="240" height="60" as="geometry"/>
                </mxCell>
                <mxCell id="74" value="" style="edgeStyle=none;html=1;exitX=1;exitY=0.5;exitDx=0;exitDy=0;" parent="1" source="68" target="73" edge="1">
                    <mxGeometry relative="1" as="geometry"/>
                </mxCell>
                <mxCell id="75" value="MD5相同" style="edgeLabel;html=1;align=center;verticalAlign=middle;resizable=0;points=[];" parent="74" vertex="1" connectable="0">
                    <mxGeometry x="-0.1985" relative="1" as="geometry">
                        <mxPoint as="offset"/>
                    </mxGeometry>
                </mxCell>
                <mxCell id="106" value="" style="edgeStyle=orthogonalEdgeStyle;html=1;entryX=0.5;entryY=0;entryDx=0;entryDy=0;exitX=0.5;exitY=1;exitDx=0;exitDy=0;startArrow=none;" parent="1" source="109" target="65" edge="1">
                    <mxGeometry relative="1" as="geometry">
                        <mxPoint x="1806" y="275" as="targetPoint"/>
                        <Array as="points">
                            <mxPoint x="1716" y="265"/>
                        </Array>
                    </mxGeometry>
                </mxCell>
                <mxCell id="68" value="MD5信息是否相同？" style="rhombus;whiteSpace=wrap;html=1;" parent="1" vertex="1">
                    <mxGeometry x="1736" y="115" width="140" height="80" as="geometry"/>
                </mxCell>
                <mxCell id="64" value="server存在文件a的MD5信息&lt;br&gt;local存在文件a的MD5信息" style="text;html=1;align=center;verticalAlign=middle;resizable=0;points=[];autosize=1;strokeColor=none;fillColor=none;glass=0;" parent="1" vertex="1">
                    <mxGeometry x="1546" y="140" width="160" height="30" as="geometry"/>
                </mxCell>
                <mxCell id="70" value="" style="edgeStyle=none;html=1;entryX=0;entryY=0.5;entryDx=0;entryDy=0;exitX=1;exitY=0.5;exitDx=0;exitDy=0;endArrow=none;" parent="1" source="60" target="64" edge="1">
                    <mxGeometry relative="1" as="geometry">
                        <mxPoint x="1536" y="155" as="sourcePoint"/>
                        <mxPoint x="1736" y="155" as="targetPoint"/>
                    </mxGeometry>
                </mxCell>
                <mxCell id="103" value="" style="html=1;entryX=0;entryY=0.5;entryDx=0;entryDy=0;exitX=1;exitY=0.5;exitDx=0;exitDy=0;" parent="1" source="73" target="96" edge="1">
                    <mxGeometry relative="1" as="geometry">
                        <mxPoint x="2196" y="155" as="targetPoint"/>
                    </mxGeometry>
                </mxCell>
                <mxCell id="108" value="" style="edgeStyle=orthogonalEdgeStyle;html=1;entryX=0.5;entryY=0;entryDx=0;entryDy=0;exitX=0.5;exitY=1;exitDx=0;exitDy=0;" parent="1" source="73" target="65" edge="1">
                    <mxGeometry relative="1" as="geometry">
                        <mxPoint x="2035.9999999999995" y="285" as="targetPoint"/>
                        <Array as="points">
                            <mxPoint x="2036" y="265"/>
                            <mxPoint x="1716" y="265"/>
                        </Array>
                    </mxGeometry>
                </mxCell>
                <mxCell id="73" value="本地文件是否存在" style="rhombus;whiteSpace=wrap;html=1;" parent="1" vertex="1">
                    <mxGeometry x="1966" y="115" width="140" height="80" as="geometry"/>
                </mxCell>
                <mxCell id="84" value="结束文件a检测" style="ellipse;whiteSpace=wrap;html=1;glass=0;" parent="1" vertex="1">
                    <mxGeometry x="2336" y="365" width="120" height="80" as="geometry"/>
                </mxCell>
                <mxCell id="85" value="" style="edgeStyle=none;html=1;endArrow=none;exitX=1;exitY=0.5;exitDx=0;exitDy=0;entryX=0.5;entryY=0;entryDx=0;entryDy=0;" parent="1" source="96" target="84" edge="1">
                    <mxGeometry relative="1" as="geometry">
                        <mxPoint x="1805.9999999999995" y="-5" as="sourcePoint"/>
                        <mxPoint x="1805.9999999999995" y="-105" as="targetPoint"/>
                    </mxGeometry>
                </mxCell>
                <mxCell id="86" value="存在" style="edgeLabel;html=1;align=center;verticalAlign=middle;resizable=0;points=[];" parent="85" vertex="1" connectable="0">
                    <mxGeometry x="-0.3268" y="-1" relative="1" as="geometry">
                        <mxPoint as="offset"/>
                    </mxGeometry>
                </mxCell>
                <mxCell id="89" value="server存在文件a的MD5信息&lt;br&gt;local不存在文件a的MD5信息" style="text;html=1;align=center;verticalAlign=middle;resizable=0;points=[];autosize=1;strokeColor=none;fillColor=none;" parent="1" vertex="1">
                    <mxGeometry x="1326" y="215" width="170" height="30" as="geometry"/>
                </mxCell>
                <mxCell id="101" value="" style="html=1;entryX=0.5;entryY=0;entryDx=0;entryDy=0;exitX=0.5;exitY=1;exitDx=0;exitDy=0;edgeStyle=orthogonalEdgeStyle;" parent="1" source="96" target="65" edge="1">
                    <mxGeometry relative="1" as="geometry">
                        <mxPoint x="2264.421599074706" y="315.01038241942797" as="targetPoint"/>
                        <Array as="points">
                            <mxPoint x="2296" y="265"/>
                            <mxPoint x="1716" y="265"/>
                        </Array>
                    </mxGeometry>
                </mxCell>
                <mxCell id="96" value="计算文件a的真实MD5,并与server文件a的MD5比较" style="rhombus;whiteSpace=wrap;html=1;" parent="1" vertex="1">
                    <mxGeometry x="2196" y="100" width="200" height="110" as="geometry"/>
                </mxCell>
                <mxCell id="104" value="存在" style="text;html=1;align=center;verticalAlign=middle;resizable=0;points=[];autosize=1;strokeColor=none;fillColor=none;" parent="1" vertex="1">
                    <mxGeometry x="2126" y="145" width="40" height="20" as="geometry"/>
                </mxCell>
                <mxCell id="109" value="MD5不相同" style="text;html=1;align=center;verticalAlign=middle;resizable=0;points=[];autosize=1;strokeColor=none;fillColor=none;" parent="1" vertex="1">
                    <mxGeometry x="1766" y="215" width="80" height="20" as="geometry"/>
                </mxCell>
                <mxCell id="110" value="" style="edgeStyle=orthogonalEdgeStyle;html=1;entryX=0.5;entryY=0;entryDx=0;entryDy=0;exitX=0.5;exitY=1;exitDx=0;exitDy=0;endArrow=none;" parent="1" source="68" target="109" edge="1">
                    <mxGeometry relative="1" as="geometry">
                        <mxPoint x="1806" y="195" as="sourcePoint"/>
                        <mxPoint x="1716" y="345" as="targetPoint"/>
                        <Array as="points">
                            <mxPoint x="1806" y="265"/>
                        </Array>
                    </mxGeometry>
                </mxCell>
                <mxCell id="111" value="本地文件不存在" style="text;html=1;align=center;verticalAlign=middle;resizable=0;points=[];autosize=1;strokeColor=none;fillColor=none;" parent="1" vertex="1">
                    <mxGeometry x="1986" y="215" width="100" height="20" as="geometry"/>
                </mxCell>
                <mxCell id="112" value="MD5不相同" style="text;html=1;align=center;verticalAlign=middle;resizable=0;points=[];autosize=1;strokeColor=none;fillColor=none;" parent="1" vertex="1">
                    <mxGeometry x="2256" y="215" width="80" height="20" as="geometry"/>
                </mxCell>
                <mxCell id="185" value="" style="html=1;entryX=0.5;entryY=0;entryDx=0;entryDy=0;exitX=0.5;exitY=1;exitDx=0;exitDy=0;edgeStyle=orthogonalEdgeStyle;" edge="1" parent="1" source="113" target="187">
                    <mxGeometry relative="1" as="geometry">
                        <mxPoint x="1702" y="730" as="targetPoint"/>
                        <Array as="points">
                            <mxPoint x="1776" y="680"/>
                            <mxPoint x="1702" y="680"/>
                        </Array>
                    </mxGeometry>
                </mxCell>
                <mxCell id="113" value="要下载文件数量为0" style="rounded=0;whiteSpace=wrap;html=1;" parent="1" vertex="1">
                    <mxGeometry x="1716" y="465" width="120" height="60" as="geometry"/>
                </mxCell>
                <mxCell id="121" value="" style="edgeStyle=none;html=1;entryX=0.5;entryY=1;entryDx=0;entryDy=0;entryPerimeter=0;" parent="1" source="114" target="119" edge="1">
                    <mxGeometry relative="1" as="geometry">
                        <mxPoint x="1204.5" y="44.999999999999886" as="targetPoint"/>
                    </mxGeometry>
                </mxCell>
                <mxCell id="114" value="遍历&lt;br&gt;version_server.json" style="text;html=1;align=center;verticalAlign=middle;resizable=0;points=[];autosize=1;strokeColor=none;fillColor=none;" parent="1" vertex="1">
                    <mxGeometry x="1144.5" y="125" width="120" height="30" as="geometry"/>
                </mxCell>
                <mxCell id="119" value="&lt;br&gt;为了找出增加，修改的文件" style="shape=note;whiteSpace=wrap;html=1;backgroundOutline=1;darkOpacity=0.05;" parent="1" vertex="1">
                    <mxGeometry x="1164.5" y="190" width="80" height="100" as="geometry"/>
                </mxCell>
                <mxCell id="122" value="遍历&lt;br&gt;version_local.json" style="text;html=1;align=center;verticalAlign=middle;resizable=0;points=[];autosize=1;strokeColor=none;fillColor=none;" parent="1" vertex="1">
                    <mxGeometry x="930.75" y="225" width="110" height="30" as="geometry"/>
                </mxCell>
                <mxCell id="129" value="" style="edgeStyle=none;html=1;entryX=0.5;entryY=0;entryDx=0;entryDy=0;exitX=0.5;exitY=1;exitDx=0;exitDy=0;" parent="1" source="123" target="128" edge="1">
                    <mxGeometry relative="1" as="geometry"/>
                </mxCell>
                <mxCell id="123" value="&lt;span&gt;要下载文件数量&amp;gt;0&lt;/span&gt;" style="whiteSpace=wrap;html=1;" parent="1" vertex="1">
                    <mxGeometry x="1580" y="465" width="120" height="60" as="geometry"/>
                </mxCell>
                <mxCell id="131" value="" style="edgeStyle=none;html=1;startArrow=none;" parent="1" source="132" target="130" edge="1">
                    <mxGeometry relative="1" as="geometry"/>
                </mxCell>
                <mxCell id="182" value="" style="edgeStyle=orthogonalEdgeStyle;html=1;exitX=0.5;exitY=1;exitDx=0;exitDy=0;entryX=0.5;entryY=0;entryDx=0;entryDy=0;" edge="1" parent="1" source="128" target="187">
                    <mxGeometry relative="1" as="geometry">
                        <mxPoint x="1702" y="730" as="targetPoint"/>
                        <Array as="points">
                            <mxPoint x="1640" y="680"/>
                            <mxPoint x="1702" y="680"/>
                            <mxPoint x="1702" y="800"/>
                        </Array>
                    </mxGeometry>
                </mxCell>
                <mxCell id="128" value="&lt;span&gt;开始下载所有文件&lt;br&gt;每个文件下载完毕对比MD5&lt;/span&gt;" style="rhombus;whiteSpace=wrap;html=1;" parent="1" vertex="1">
                    <mxGeometry x="1518" y="570" width="244" height="90" as="geometry"/>
                </mxCell>
                <mxCell id="141" value="" style="edgeStyle=none;html=1;exitX=0.5;exitY=0;exitDx=0;exitDy=0;entryX=0.5;entryY=1;entryDx=0;entryDy=0;" parent="1" source="130" target="140" edge="1">
                    <mxGeometry relative="1" as="geometry"/>
                </mxCell>
                <mxCell id="130" value="重新尝试下载&lt;br&gt;记录下载失败次数&lt;br&gt;最多尝试下载3次" style="whiteSpace=wrap;html=1;" parent="1" vertex="1">
                    <mxGeometry x="1290" y="585" width="120" height="60" as="geometry"/>
                </mxCell>
                <mxCell id="132" value="MD5 不一致" style="text;html=1;align=center;verticalAlign=middle;resizable=0;points=[];autosize=1;strokeColor=none;fillColor=none;" parent="1" vertex="1">
                    <mxGeometry x="1430" y="605" width="80" height="20" as="geometry"/>
                </mxCell>
                <mxCell id="139" value="" style="edgeStyle=none;html=1;endArrow=none;" parent="1" source="128" target="132" edge="1">
                    <mxGeometry relative="1" as="geometry">
                        <mxPoint x="1518" y="630" as="sourcePoint"/>
                        <mxPoint x="1430" y="630" as="targetPoint"/>
                    </mxGeometry>
                </mxCell>
                <mxCell id="143" value="" style="edgeStyle=none;html=1;entryX=0;entryY=0.5;entryDx=0;entryDy=0;exitX=1;exitY=0.5;exitDx=0;exitDy=0;startArrow=none;" parent="1" source="144" target="65" edge="1">
                    <mxGeometry relative="1" as="geometry">
                        <mxPoint x="1450" y="385" as="targetPoint"/>
                    </mxGeometry>
                </mxCell>
                <mxCell id="151" value="" style="edgeStyle=none;html=1;" parent="1" source="140" target="150" edge="1">
                    <mxGeometry relative="1" as="geometry"/>
                </mxCell>
                <mxCell id="140" value="重试次超过3次？" style="rhombus;whiteSpace=wrap;html=1;" parent="1" vertex="1">
                    <mxGeometry x="1290" y="355" width="120" height="80" as="geometry"/>
                </mxCell>
                <mxCell id="144" value="否" style="text;html=1;align=center;verticalAlign=middle;resizable=0;points=[];autosize=1;strokeColor=none;fillColor=none;" parent="1" vertex="1">
                    <mxGeometry x="1480" y="385" width="30" height="20" as="geometry"/>
                </mxCell>
                <mxCell id="145" value="" style="edgeStyle=none;html=1;entryX=0;entryY=0.5;entryDx=0;entryDy=0;exitX=1;exitY=0.5;exitDx=0;exitDy=0;endArrow=none;" parent="1" source="140" target="144" edge="1">
                    <mxGeometry relative="1" as="geometry">
                        <mxPoint x="1410" y="395" as="sourcePoint"/>
                        <mxPoint x="1596" y="395" as="targetPoint"/>
                    </mxGeometry>
                </mxCell>
                <mxCell id="170" value="" style="edgeStyle=orthogonalEdgeStyle;html=1;" parent="1" source="150" target="169" edge="1">
                    <mxGeometry relative="1" as="geometry"/>
                </mxCell>
                <mxCell id="150" value="提示下载失败&lt;br&gt;用户重新尝试" style="ellipse;whiteSpace=wrap;html=1;" parent="1" vertex="1">
                    <mxGeometry x="1144.5" y="365" width="120" height="60" as="geometry"/>
                </mxCell>
                <mxCell id="161" value="是&lt;br&gt;&lt;br&gt;提审中，不可热更" style="text;html=1;align=center;verticalAlign=middle;resizable=0;points=[];autosize=1;strokeColor=none;fillColor=none;" parent="1" vertex="1">
                    <mxGeometry x="270" y="385" width="110" height="50" as="geometry"/>
                </mxCell>
                <mxCell id="174" value="" style="edgeStyle=orthogonalEdgeStyle;html=1;entryX=0.482;entryY=1.041;entryDx=0;entryDy=0;entryPerimeter=0;" parent="1" source="169" target="23" edge="1">
                    <mxGeometry relative="1" as="geometry">
                        <mxPoint x="1064.4999999999995" y="775" as="targetPoint"/>
                    </mxGeometry>
                </mxCell>
                <mxCell id="169" value="重启游戏" style="whiteSpace=wrap;html=1;" parent="1" vertex="1">
                    <mxGeometry x="1144.5" y="745" width="120" height="60" as="geometry"/>
                </mxCell>
                <mxCell id="PIqp8Kj3s299K9vhxBDJ-185" value="下载过程被中断问题" style="swimlane;fontStyle=0;childLayout=stackLayout;horizontal=1;startSize=26;fillColor=none;horizontalStack=0;resizeParent=1;resizeParentMax=0;resizeLast=0;collapsible=1;marginBottom=0;" parent="1" vertex="1">
                    <mxGeometry x="1921" y="550" width="230" height="130" as="geometry">
                        <mxRectangle x="299" y="1036" width="100" height="26" as="alternateBounds"/>
                    </mxGeometry>
                </mxCell>
                <mxCell id="PIqp8Kj3s299K9vhxBDJ-186" value="如何检测：&#10;&#10;下载版控后，判断下载目录是否为空&#10;如果不为空，则在得到差异列表后，遍历&#10;下载目录下的文件，并且对比MD5文件，&#10;对于下载完整的文件从差异列表中移除。&#10;&#10;" style="text;strokeColor=none;fillColor=none;align=left;verticalAlign=top;spacingLeft=4;spacingRight=4;overflow=hidden;rotatable=0;points=[[0,0.5],[1,0.5]];portConstraint=eastwest;" parent="PIqp8Kj3s299K9vhxBDJ-185" vertex="1">
                    <mxGeometry y="26" width="230" height="104" as="geometry"/>
                </mxCell>
                <mxCell id="175" value="" style="shape=singleArrow;whiteSpace=wrap;html=1;" vertex="1" parent="1">
                    <mxGeometry x="1762" y="607.5" width="158" height="15" as="geometry"/>
                </mxCell>
                <mxCell id="192" value="" style="edgeStyle=orthogonalEdgeStyle;html=1;" edge="1" parent="1" source="179">
                    <mxGeometry relative="1" as="geometry">
                        <mxPoint x="1199" y="800" as="targetPoint"/>
                    </mxGeometry>
                </mxCell>
                <mxCell id="179" value="&lt;span style=&quot;&quot;&gt;删除要删除列表中的文件&lt;br&gt;&lt;/span&gt;&lt;span style=&quot;&quot;&gt;复制新的版控文件到热更目录&lt;/span&gt;&lt;br style=&quot;&quot;&gt;&lt;span style=&quot;&quot;&gt;删除下载目录&lt;/span&gt;&lt;span style=&quot;&quot;&gt;&lt;br&gt;&lt;/span&gt;" style="whiteSpace=wrap;html=1;align=left;" vertex="1" parent="1">
                    <mxGeometry x="1585" y="900" width="234" height="60" as="geometry"/>
                </mxCell>
                <mxCell id="186" value="下载完成" style="text;html=1;align=center;verticalAlign=middle;resizable=0;points=[];autosize=1;strokeColor=none;fillColor=none;" vertex="1" parent="1">
                    <mxGeometry x="1672" y="694" width="60" height="20" as="geometry"/>
                </mxCell>
                <mxCell id="193" value="" style="html=1;exitX=0.5;exitY=1;exitDx=0;exitDy=0;entryX=0.5;entryY=0;entryDx=0;entryDy=0;" edge="1" parent="1" source="187" target="179">
                    <mxGeometry relative="1" as="geometry"/>
                </mxCell>
                <mxCell id="187" value="&lt;div&gt;复制文件(确保复制到热更目录的完整性)&lt;/div&gt;&lt;div&gt;&lt;br&gt;&lt;/div&gt;&lt;div style=&quot;text-align: left&quot;&gt;如果热更目录不存该文件则直接拷贝。&lt;/div&gt;&lt;div style=&quot;text-align: left&quot;&gt;如果热更目录存在此文件，检测MD5是否一致&lt;/div&gt;&lt;div style=&quot;text-align: left&quot;&gt;&lt;span style=&quot;white-space: pre&quot;&gt;&#9;&lt;/span&gt;1. 不一致就从下载目录重新拷贝&lt;/div&gt;&lt;div style=&quot;text-align: left&quot;&gt;&lt;span style=&quot;white-space: pre&quot;&gt;&#9;&lt;/span&gt;2. 一致就跳过复制&lt;/div&gt;" style="whiteSpace=wrap;html=1;align=center;" vertex="1" parent="1">
                    <mxGeometry x="1558" y="730" width="288" height="120" as="geometry"/>
                </mxCell>
                <mxCell id="196" value="&lt;span&gt;进入游戏&lt;/span&gt;" style="ellipse;whiteSpace=wrap;html=1;" vertex="1" parent="1">
                    <mxGeometry x="265" y="455" width="120" height="80" as="geometry"/>
                </mxCell>
                <mxCell id="198" value="&lt;span&gt;同意隐私条款后，&lt;/span&gt;&lt;br&gt;&lt;span&gt;检查渠道是否开启热更新&lt;/span&gt;" style="ellipse;whiteSpace=wrap;html=1;" vertex="1" parent="1">
                    <mxGeometry x="20" y="115" width="120" height="80" as="geometry"/>
                </mxCell>
                <mxCell id="199" value="&lt;span&gt;找出要删除的文件列表&lt;/span&gt;" style="shape=note;whiteSpace=wrap;html=1;backgroundOutline=1;darkOpacity=0.05;" vertex="1" parent="1">
                    <mxGeometry x="945.75" y="270" width="80" height="100" as="geometry"/>
                </mxCell>
                <mxCell id="202" value="无热更" style="text;html=1;align=center;verticalAlign=middle;resizable=0;points=[];autosize=1;strokeColor=none;fillColor=none;" vertex="1" parent="1">
                    <mxGeometry x="605" y="330" width="50" height="20" as="geometry"/>
                </mxCell>
            </root>
        </mxGraphModel>
    </diagram>
</mxfile>